<?xml version="1.0" encoding="UTF-8" standalone="no"?>
<!DOCTYPE svg PUBLIC "-//W3C//DTD SVG 1.1//EN" "http://www.w3.org/Graphics/SVG/1.1/DTD/svg11.dtd">
<svg width="100%" height="100%" viewBox="0 0 757 882" version="1.1" xmlns="http://www.w3.org/2000/svg" xmlns:xlink="http://www.w3.org/1999/xlink" xml:space="preserve" xmlns:serif="http://www.serif.com/" style="fill-rule:evenodd;clip-rule:evenodd;stroke-linejoin:round;stroke-miterlimit:2;">
    <g transform="matrix(1,0,0,1,-583.548,-606.514)">
        <g transform="matrix(2.89862,0,0,2.89862,177.655,-2980.05)">
            <path d="M195.827,1237.41L345.157,1237.41C375.806,1237.41 400.882,1262.73 400.882,1293.67L400.882,1485.19C400.882,1516.13 375.805,1541.46 345.157,1541.46L195.827,1541.46C165.179,1541.46 140.101,1516.14 140.101,1485.19L140.101,1293.67C140.101,1262.73 165.178,1237.41 195.827,1237.41" style="fill:rgb(28,46,117);stroke:rgb(255,0,255);stroke-width:0.14px;"/>
        </g>
        <g transform="matrix(2.89862,0,0,2.89862,177.655,-2980.05)">
            <path d="M195.827,1240.24C166.532,1240.24 142.936,1264.51 142.936,1293.67L142.936,1485.19C142.936,1514.35 166.533,1538.62 195.827,1538.62L345.157,1538.62C374.45,1538.62 398.048,1514.35 398.048,1485.19L398.048,1293.67C398.048,1264.51 374.451,1240.24 345.157,1240.24L195.827,1240.24Z" style="fill:rgb(17,76,133);"/>
        </g>
        <g transform="matrix(2.89862,0,0,2.89862,177.655,-2673.77)">
            <path d="M388.667,1248.2L388.667,1372.34L388.674,1372.34C388.674,1386.42 382.7,1399.23 373.533,1408.52C364.357,1417.81 351.702,1425 337.783,1425L204.254,1425C190.335,1425 177.68,1417.81 168.505,1408.52C159.338,1399.23 153.081,1385.85 153.081,1371.77L153.081,1281.73L154.542,1281.52L386.733,1248.47L388.667,1248.2Z" style="fill:rgb(28,46,117);fill-rule:nonzero;"/>
        </g>
        <g transform="matrix(2.89862,0,0,2.89862,177.655,-2672.51)">
            <path d="M385.832,1251.03L155.915,1283.75L155.915,1371.34C155.915,1384.2 161.521,1396.97 170.522,1406.09C179.395,1415.08 191.369,1421.73 204.254,1421.73L337.783,1421.73C350.669,1421.73 362.643,1415.08 371.515,1406.09C380.334,1397.16 385.622,1385.26 385.832,1372.68L385.832,1251.03Z" style="fill:rgb(0,163,189);"/>
        </g>
        <g transform="matrix(2.89862,0,0,2.89862,177.655,-3223.66)">
            <path d="M228.231,1436.68L228.231,1433.33C228.231,1433.19 228.558,1433.01 228.639,1433.01C228.825,1433.01 230.357,1433.24 230.441,1433.29C230.655,1433.42 230.931,1433.46 231.195,1433.58C231.485,1433.7 231.68,1433.77 231.96,1433.9C232.658,1434.24 233.891,1435.2 233.891,1436.18L233.891,1436.32C233.891,1436.92 233.314,1437.42 232.894,1437.63C232.752,1437.7 232.692,1437.79 232.53,1437.81C232.217,1437.85 232.305,1437.81 232.079,1437.95C231.707,1438.16 231.498,1438.01 231.063,1438.11C230.437,1438.25 229.718,1438.32 228.954,1438.31C228.402,1438.3 228.44,1438.2 228.367,1437.72C228.317,1437.4 228.231,1437.03 228.231,1436.68ZM228.095,1425.58C228.314,1425.25 228.214,1425.25 228.693,1425.18C228.98,1425.14 229.286,1425.13 229.59,1425.13L229.68,1425.13C231.071,1425.13 232.713,1425.83 232.713,1427.17C232.713,1427.65 232.543,1428.37 232.306,1428.57C232.053,1428.79 231.762,1429.29 231.346,1429.42C231.078,1429.51 231.25,1429.48 231.068,1429.6C230.928,1429.69 230.867,1429.63 230.721,1429.7C230.468,1429.83 230.332,1429.84 230.061,1429.95C229.944,1430 228.741,1430.29 228.639,1430.29L228.367,1430.29C228.126,1430.29 228.05,1429.8 228.05,1429.52L228.05,1426.31L228.095,1425.58ZM224.247,1424.13L224.202,1424.54C224.132,1425.01 225.02,1425.56 225.099,1426.09C225.181,1426.63 225.106,1427.9 225.106,1428.53C225.107,1430.1 225.288,1431.67 225.288,1433.24L225.288,1437.99C225.288,1438.3 224.654,1439.05 224.654,1439.13L224.644,1439.58L224.699,1439.99C224.834,1440.06 224.997,1440.3 225.163,1440.43C225.227,1440.48 225.713,1440.71 225.829,1440.71C226.504,1440.73 227.033,1440.8 227.642,1440.8L228.865,1440.8C229.368,1440.8 229.673,1440.71 230.223,1440.71C231.023,1440.71 230.965,1440.65 231.5,1440.54C231.705,1440.5 231.959,1440.51 232.154,1440.47C232.308,1440.43 232.505,1440.34 232.696,1440.29C233.006,1440.2 233.62,1440.05 233.756,1439.86L234.162,1439.81C234.313,1439.52 234.385,1439.69 234.603,1439.52C234.719,1439.43 234.931,1439.27 235.052,1439.2C235.383,1439.01 235.62,1438.79 235.873,1438.53C236.192,1438.19 236.833,1437.08 236.833,1436.5L236.833,1436.09C236.833,1435.68 236.508,1434.76 236.324,1434.52C236.188,1434.34 236.039,1434.04 235.903,1433.9C235.756,1433.74 235.5,1433.47 235.384,1433.33C235.087,1432.96 234.607,1432.66 234.217,1432.37C234.012,1432.21 232.94,1431.71 232.94,1431.52L232.94,1431.47C232.94,1431.15 235.702,1430.27 235.702,1427.3C235.702,1426.27 235.303,1425.66 234.914,1425.01C234.69,1424.64 233.657,1423.63 233.166,1423.63C233.12,1423.46 232.619,1423.26 232.415,1423.21C232.148,1423.14 232.202,1423.1 231.991,1423.04C231.82,1423 231.644,1423.02 231.489,1422.96C230.899,1422.73 230.119,1422.73 229.318,1422.73C228.744,1422.73 228.342,1422.77 227.778,1422.77C227.364,1422.77 227.39,1422.76 227.081,1422.89C226.773,1423.02 226.713,1422.97 226.408,1423.03C226.012,1423.11 225.563,1423.33 225.179,1423.43C224.634,1423.59 224.546,1423.93 224.247,1424.13ZM168.92,1423.54L168.92,1423.59C168.92,1423.85 169.058,1424.2 169.057,1424.58C169.055,1424.98 169.056,1425.37 169.056,1425.76L169.056,1437.45C169.056,1438.07 168.961,1439.24 169.139,1439.68C169.246,1439.94 169.429,1440.18 169.633,1440.36C169.733,1440.45 170.359,1440.67 170.505,1440.67C170.692,1440.67 171.299,1440.46 171.43,1440.37C171.654,1440.21 171.854,1439.93 171.999,1439.71L171.999,1436.63C171.999,1436.19 171.903,1435.48 172.123,1435.22C172.407,1434.88 172.654,1434.75 172.932,1434.44C173.185,1434.16 173.408,1433.92 173.663,1433.63C173.854,1433.42 174.212,1432.9 174.57,1433.2C174.698,1433.31 175.199,1433.83 175.332,1433.98C175.587,1434.26 175.845,1434.52 176.127,1434.77C176.618,1435.21 177.16,1435.84 177.647,1436.33C178.178,1436.86 178.682,1437.37 179.203,1437.9C179.726,1438.43 180.215,1438.94 180.748,1439.48C181.014,1439.74 181.248,1439.99 181.517,1440.25C181.689,1440.41 182.318,1440.71 182.639,1440.71L183.182,1440.71C183.398,1440.71 183.784,1440.49 183.896,1440.38C184.197,1440.09 184.145,1440.08 184.349,1439.76L184.404,1439.49C184.326,1439.43 184.069,1438.99 183.992,1438.86C183.881,1438.68 183.673,1438.48 183.526,1438.28C183.216,1437.87 182.862,1437.58 182.513,1437.21C181.821,1436.49 181.164,1435.82 180.454,1435.11C179.969,1434.62 176.436,1431.13 176.436,1430.79L176.436,1430.75C176.436,1430.66 178.844,1428.16 179.118,1427.86C179.585,1427.35 180.019,1426.92 180.485,1426.42C180.876,1426 181.643,1425.52 181.643,1424.77C181.643,1423.99 181.052,1424.01 180.827,1423.68L180.33,1423.63L180.058,1423.63C179.39,1423.63 178.397,1425.03 177.931,1425.4C177.481,1425.76 176.427,1426.92 176.032,1427.4C175.622,1427.89 174.603,1428.98 174.135,1429.39C173.887,1429.61 173.362,1430.12 173.168,1430.38C172.883,1430.74 172.592,1431.17 172.09,1431.29C171.879,1430.89 171.909,1426.5 171.909,1425.58L171.909,1425.08C171.909,1424.79 171.999,1424.74 171.999,1424.45L171.999,1423.36C171.999,1423.15 171.782,1422.87 171.66,1422.75C171.443,1422.54 171.193,1422.47 171.091,1422.34L170.369,1422.23C169.542,1422.1 168.92,1422.79 168.92,1423.54ZM189.566,1423.27C189.566,1423.56 189.429,1423.89 189.43,1424.36C189.431,1424.8 189.475,1425.08 189.475,1425.54C189.475,1426.37 189.524,1427.08 189.52,1427.94C189.513,1429.44 189.566,1431.15 189.566,1432.74C189.566,1433.55 189.564,1434.37 189.565,1435.19C189.565,1435.57 189.678,1435.96 189.702,1436.27C189.724,1436.56 189.744,1437.07 189.801,1437.35C189.902,1437.85 190.275,1438.72 190.643,1438.95C191.096,1439.25 191.697,1439.58 192.418,1439.58L192.599,1439.58C193.116,1439.58 193.824,1439.39 194.455,1439.4C194.881,1439.4 195.996,1439.37 196.367,1439.32C196.833,1439.24 197.817,1439.25 198.304,1439.22C198.743,1439.19 199.255,1438.62 199.255,1438.17L199.255,1437.9C199.255,1437.34 198.631,1436.5 198.123,1436.5L196.131,1436.5L193.008,1436.74C192.309,1436.78 192.464,1430.32 192.464,1429.16C192.464,1427.83 192.466,1426.44 192.417,1425.17C192.397,1424.68 192.333,1423.68 192.18,1423.37C192.014,1423.05 191.462,1422.55 191.015,1422.55L190.381,1422.55C190.033,1422.55 189.665,1423.05 189.566,1423.09L189.566,1423.27ZM216.958,1424.09L216.641,1424.09C215.232,1424.09 215.373,1425.99 215.373,1427.44C215.373,1428.2 215.324,1429.03 215.327,1429.7C215.332,1430.64 215.098,1431.01 215.101,1431.79C215.104,1432.35 214.741,1433.08 214.645,1433.64C214.634,1433.71 214.364,1434.43 214.319,1434.49C214.186,1434.67 214.248,1434.78 214.159,1434.92C214.038,1435.12 214.081,1434.95 213.961,1435.27C213.849,1435.56 213.186,1436.31 212.892,1436.51C212.545,1436.74 211.837,1437.18 211.298,1437.18C211.294,1437.18 210.435,1436.88 210.428,1436.87C210.17,1436.67 210.013,1436.55 209.807,1436.31C209.72,1436.21 209.387,1435.72 209.351,1435.59C209.273,1435.32 209.198,1435.39 209.133,1435.22C209.054,1435.02 209.098,1435.03 208.991,1434.82C208.86,1434.57 208.463,1433.35 208.446,1433.01C208.422,1432.56 208.256,1432.36 208.221,1432.06C208.181,1431.7 208.218,1431.33 208.172,1430.97C208.124,1430.6 208.048,1430.48 208.04,1429.93C208.038,1429.76 208.012,1428.99 207.983,1428.81C207.921,1428.41 207.898,1427.03 207.903,1426.58C207.909,1425.89 207.775,1425.05 207.767,1424.36C207.76,1423.74 207.268,1423.18 206.635,1423.18L206.318,1423.18C205.609,1423.18 205.377,1423.53 205.095,1423.95L205.039,1424.49L205.05,1424.95C205.05,1425.54 205.121,1425.98 205.139,1426.53C205.159,1427.15 205.095,1427.47 205.095,1428.07L205.095,1428.98C205.095,1429.52 205.207,1430.25 205.287,1430.78C205.326,1431.04 205.306,1431.42 205.385,1431.68C205.48,1431.98 205.553,1432.09 205.548,1432.51C205.542,1433.03 205.736,1432.98 205.773,1433.28C205.835,1433.79 205.806,1433.7 205.929,1434.12C206.089,1434.68 206.128,1435.22 206.408,1435.64C206.408,1435.96 206.484,1436.05 206.68,1436.18L206.68,1436.45C206.825,1436.55 207.231,1437.27 207.462,1437.53C207.629,1437.71 207.687,1437.82 207.89,1438.01C208.047,1438.15 208.221,1438.28 208.388,1438.41C208.912,1438.85 210.213,1439.31 211.162,1439.31L211.479,1439.31C213.008,1439.31 214.262,1438.53 215.076,1437.79C215.321,1437.56 215.509,1437.37 215.723,1437.12C215.8,1437.03 216.2,1436.44 216.236,1436.37C216.467,1435.85 216.782,1435.13 217.049,1434.64C217.057,1434.63 217.357,1433.66 217.361,1433.64C217.391,1433.44 217.534,1432.81 217.597,1432.61C217.754,1432.11 217.727,1432.14 217.772,1431.52C217.797,1431.17 217.938,1430.81 217.989,1430.46C218.073,1429.91 218.001,1428.57 217.999,1427.94C217.996,1427.14 218.089,1426.35 218.089,1425.49C218.089,1424.72 217.719,1424.09 216.958,1424.09" style="fill:rgb(255,245,0);"/>
        </g>
        <g transform="matrix(2.89862,0,0,2.89862,177.655,-2403.96)">
            <path d="M353.888,1300.97C354.881,1300.97 357.075,1300.96 357.89,1300.82C358.539,1300.71 358.951,1300.53 359.685,1300.53C360.681,1300.54 360.939,1300.28 361.503,1300.28L362.195,1300.28C362.429,1300.28 362.434,1300.32 362.628,1300.36C362.706,1300.69 362.747,1301.1 362.905,1301.38C363.176,1301.87 362.983,1301.84 363.109,1302.39C363.253,1303.03 363.48,1303.76 363.632,1304.38C363.829,1305.18 363.948,1305.62 364.272,1306.25C364.485,1306.67 365.289,1307.2 365.743,1307.2L366.003,1307.2C366.75,1307.2 367.907,1306.45 367.907,1305.64L367.907,1304.69C367.907,1303.63 367.041,1302.06 367.041,1300.71L366.951,1300.73L365.415,1294.23L364.205,1289.73C364.042,1289.37 363.757,1288.37 363.523,1287.87C363.234,1287.25 362.981,1286.76 362.703,1286.17C362.348,1285.43 361.006,1283.82 359.945,1283.82L359.513,1283.82C358.525,1283.82 357.127,1285.62 356.621,1286.3C356.229,1286.83 355.922,1287.36 355.566,1287.93C355.234,1288.45 355.02,1289.12 354.691,1289.65C354.102,1290.6 351.537,1296.5 351.205,1296.73L351.294,1296.77L350.078,1299.45L349.994,1299.41C349.994,1300.37 347.917,1303.79 347.917,1304.95L347.917,1306.08C347.917,1306.42 348.549,1306.94 348.956,1306.94L349.734,1306.94C351.931,1306.94 352.639,1301.81 353.888,1300.97ZM355.186,1296.99C355.186,1296.77 356.899,1292.92 357.125,1292.52C357.539,1291.77 358.744,1288.59 359.513,1288.59C359.942,1288.59 360.724,1291.37 360.882,1291.89C361.013,1292.33 361.208,1293.44 361.358,1293.75C361.619,1294.3 361.408,1294.25 361.532,1294.79C361.63,1295.22 361.849,1295.16 361.849,1295.6L361.849,1296.47C361.849,1297.04 360.993,1296.86 360.464,1296.9C359.962,1296.93 359.403,1297.16 358.977,1297.23C358.181,1297.35 356.38,1297.51 355.619,1297.51L355.532,1297.51C355.266,1297.51 355.186,1297.25 355.186,1296.99ZM338.399,1308.15C338.894,1308.15 339.918,1307.22 340.038,1306.68C340.229,1305.81 340.358,1305.07 340.389,1304C340.443,1302.12 340.562,1300.22 340.562,1298.11L340.562,1291.96C340.562,1290.94 340.54,1289.91 340.642,1289.01C340.743,1288.13 340.908,1287.05 340.908,1286.25L340.908,1283.22C340.908,1281.6 337.979,1281.01 337.245,1282.76C336.647,1284.18 336.87,1286.86 336.844,1288.68C336.817,1290.57 336.581,1292.52 336.581,1294.73L336.581,1301.06C336.472,1301.11 336.295,1301.23 336.148,1301.23C335.784,1301.23 331.085,1293.72 330.571,1292.78C330.347,1292.37 330.107,1292.12 329.877,1291.66C329.753,1291.4 329.391,1290.77 329.24,1290.56C328.86,1290.03 328.267,1288.99 327.931,1288.41C327.513,1287.7 327.015,1286.96 326.557,1286.24C326.311,1285.85 326.112,1285.59 325.75,1285.31C325.633,1285.22 324.651,1284.78 324.553,1284.78L323.601,1284.78C322.435,1284.78 321.438,1286.21 321.438,1287.46L321.438,1289.19L321.639,1294.56L321.611,1296.47L321.409,1302.87L321.438,1304.52C321.438,1305.74 322.069,1306.68 323.255,1306.68C325.76,1306.68 325.418,1303.13 325.418,1300.62L325.418,1296.47C325.418,1295.85 325.211,1292.66 325.678,1292.66L325.764,1292.66C326.048,1292.66 328.086,1296.43 328.389,1296.96C329.167,1298.3 330.121,1299.96 331.02,1301.16C332.063,1302.56 335.951,1308.15 337.706,1308.15L338.399,1308.15ZM300.496,1300.97C301.489,1300.97 303.683,1300.96 304.499,1300.82C305.115,1300.71 305.613,1300.53 306.292,1300.53C307.282,1300.53 307.557,1300.28 308.112,1300.28L308.977,1300.28C309.958,1300.28 309.653,1307.2 312.438,1307.2L312.611,1307.2C313.299,1307.2 314.428,1306.57 314.428,1305.82L314.428,1304.09C314.428,1303.88 313.39,1300.06 313.304,1299.93L311.833,1293.41L310.756,1289.46C310.423,1288.9 310.415,1288.3 310.067,1287.67C309.757,1287.11 309.542,1286.61 309.235,1286.08C308.797,1285.32 307.67,1283.82 306.554,1283.82L306.121,1283.82C304.801,1283.82 302.881,1286.75 302.285,1287.78C301.312,1289.45 300.608,1291.25 299.665,1292.95C299.123,1293.93 294.958,1303.14 294.958,1303.74C294.702,1304.12 294.439,1305.11 294.439,1305.73C294.439,1306.15 294.659,1306.12 294.699,1306.6C295.151,1306.7 295.123,1306.94 295.564,1306.94L296.516,1306.94C296.927,1306.94 297.784,1306.21 297.981,1305.9C298.28,1305.43 298.513,1304.62 298.788,1304.19C299.341,1303.33 299.744,1301.47 300.496,1300.97ZM301.708,1296.99C301.708,1296.96 303.538,1292.99 303.728,1292.6C304.106,1291.83 305.348,1288.59 306.121,1288.59C306.563,1288.59 307.765,1292.47 307.765,1293.26C307.907,1293.47 308.333,1295.1 308.391,1295.49C308.544,1296.53 308.716,1296.9 307.331,1296.9C306.479,1296.89 306.02,1297.2 304.906,1297.24C304.074,1297.27 303.283,1297.51 302.4,1297.51L302.227,1297.51C302.007,1297.51 301.708,1297.24 301.708,1296.99ZM275.315,1303.57C275.437,1303.11 280.528,1296.34 281.197,1295.51C282.04,1294.46 287.084,1288.54 287.084,1287.55L287.084,1286.42C287.084,1285.79 285.707,1285.04 284.92,1285.04L283.535,1285.04C283.374,1285.04 280.054,1285.46 279.997,1285.48C279.114,1285.78 277.641,1285.8 276.715,1286.09C275.246,1286.56 270.988,1286.52 270.988,1288.24L270.988,1288.76C270.988,1289.16 271.917,1289.97 272.373,1289.97L272.719,1289.97C273.297,1289.97 276.933,1289.34 277.307,1289.19C277.886,1288.97 277.779,1289.05 278.521,1289.02C279.023,1289.01 279.042,1288.8 279.557,1288.76C280.371,1288.69 281.089,1288.5 281.891,1288.5C281.949,1288.75 281.978,1288.65 281.978,1288.85C281.978,1289.34 276.599,1295.95 275.888,1296.78C275.188,1297.6 270.123,1304.44 270.123,1305.04L270.123,1305.56C270.123,1306.02 270.951,1306.94 271.507,1306.94L274.276,1306.94C274.828,1306.94 275.706,1306.76 276.273,1306.69C276.966,1306.61 277.617,1306.69 278.309,1306.56C279.359,1306.37 281.325,1306.34 282.499,1306.34C283.196,1306.34 283.821,1306.1 284.484,1306.07C285.179,1306.05 285.947,1306.08 286.651,1306.08C287.905,1306.08 289.507,1305.64 289.507,1304.52L289.507,1304.17C289.507,1303.57 288.583,1302.7 288.122,1302.7L286.997,1302.7C286.408,1302.7 286.116,1302.93 285.612,1302.96C285.073,1302.99 284.708,1303.01 284.14,1303.05C283.191,1303.11 282.569,1303.31 281.286,1303.31C280.247,1303.31 279.208,1303.31 278.17,1303.31C277.158,1303.3 276.209,1303.57 275.315,1303.57ZM272.113,1273.69L272.2,1274.65C272.736,1275.01 273.199,1275.56 273.9,1275.98C274.652,1276.42 275.011,1276.79 275.663,1277.24C276.187,1277.61 276.678,1278.25 277.305,1278.63C277.708,1278.87 278.969,1279.5 279.555,1279.5L279.814,1279.5C280.629,1279.5 282.077,1277.69 282.842,1277.16C283.635,1276.6 285.872,1275.79 285.872,1274.73L285.872,1274.13C285.872,1273.37 284.989,1272.48 284.141,1272.48C282.47,1272.48 280.326,1275.53 278.992,1275.37C278.088,1275.27 275.094,1271.96 274.276,1271.96L273.325,1271.96C272.823,1271.96 272.03,1273.03 272.113,1273.69ZM252.037,1300.97C253.154,1300.97 255.287,1300.95 256.27,1300.79C256.991,1300.67 257.193,1300.53 258.182,1300.54C258.95,1300.54 259.209,1300.28 260.085,1300.28L260.431,1300.28C261.068,1300.28 261.16,1302.5 261.38,1303.05C261.476,1303.29 262.162,1305.78 262.162,1305.99C262.76,1306.39 262.798,1307.2 263.979,1307.2C264.582,1307.2 264.537,1306.94 265.19,1306.94C265.481,1306.51 266.056,1306.23 266.056,1305.38L266.056,1305.04C266.056,1303.86 265.19,1302.12 265.19,1300.97C264.911,1300.55 264.212,1296.96 264.018,1296.08C263.914,1295.61 263.387,1294.05 263.373,1293.7C263.351,1293.18 262.928,1291.77 262.789,1291.25C262.442,1289.95 261.783,1287.81 261.148,1286.83C260.605,1285.99 260.609,1285.82 259.934,1285.01C259.602,1284.62 258.815,1283.82 258.181,1283.82L257.748,1283.82C255.579,1283.82 253.122,1289.01 252.237,1290.78C251.743,1291.77 248.511,1298.96 248.229,1299.15L247.823,1300.43L246.742,1302.82C246.672,1303.09 246.301,1304.16 246.178,1304.46C245.911,1305.1 246.066,1305.7 246.066,1306.34C246.373,1306.54 246.596,1306.94 247.105,1306.94L247.884,1306.94C250.067,1306.94 250.683,1301.88 252.037,1300.97ZM257.056,1288.76C257.565,1288.72 257.237,1288.59 257.575,1288.59C257.979,1288.59 258.255,1289.74 258.527,1290.14L258.527,1290.66C258.79,1291.06 259.277,1292.82 259.401,1293.43C259.508,1293.95 259.701,1294.38 259.738,1294.91C259.781,1295.54 260.085,1295.6 260.085,1296.38C260.085,1296.5 259.667,1296.83 259.565,1296.9L253.775,1297.56L253.681,1297.51C252.718,1297.51 254.786,1293.49 254.98,1293.09C255.208,1292.62 257.044,1288.91 257.056,1288.76" style="fill:rgb(255,245,0);"/>
        </g>
        <g transform="matrix(2.89862,0,0,2.89862,177.655,-2318.53)">
            <path d="M230.317,1267.44C230.317,1266.74 235.023,1265.88 236.026,1265.88C237.347,1265.88 237.995,1265.62 239.403,1265.62C240.637,1265.62 241.566,1265.34 241.566,1264.15C241.566,1262.86 240.553,1262.51 239.23,1262.51C237.612,1262.51 235.544,1262.7 234.105,1262.92C233.541,1263.01 232.057,1263.1 231.673,1263.26C231.451,1263.35 229.739,1263.81 229.538,1263.81C228.586,1264.44 226.077,1264.88 226.077,1266.49L226.077,1266.84C226.077,1267.25 226.596,1267.96 226.596,1268.57L226.596,1270.56L226.289,1277.83L226.336,1280.95C226.336,1283.35 226.564,1288.13 228.759,1288.13L229.279,1288.13C230.012,1288.13 230.413,1287.55 230.836,1287.27C230.836,1286.73 230.983,1286.18 230.78,1285.59C230.624,1285.14 230.45,1284.58 230.406,1284.06C230.316,1283.01 230.144,1281.54 230.144,1280.52C230.144,1279.8 230.197,1279.14 230.49,1278.7C231.956,1278.7 233.479,1278.11 235.079,1278.1C235.113,1278.1 237.281,1277.71 237.289,1277.71C237.772,1277.46 238.451,1276.92 238.451,1276.27L238.451,1275.93C238.451,1275.38 237.35,1274.71 236.72,1274.71L236.201,1274.71L232.127,1275.27L230.577,1275.32C230.377,1275.32 230.317,1275.26 230.317,1275.06L230.317,1267.44Z" style="fill:rgb(255,245,0);"/>
        </g>
        <g transform="matrix(2.89862,0,0,2.89862,177.655,-3463.19)">
            <path d="M342.051,1469.13C342.051,1469.72 342.204,1470.4 342.204,1471.27C342.204,1472.06 342.124,1472.74 342.128,1473.41C342.136,1474.99 342.051,1476.3 342.051,1477.84C342.051,1479.35 341.974,1480.89 341.975,1482.28C341.976,1483.83 341.842,1485.41 343.35,1485.41L343.732,1485.41C344.017,1485.41 344.879,1484.83 344.879,1484.49L344.879,1469.59C344.879,1469.14 344.254,1468.06 343.809,1468.06L342.816,1468.06C342.486,1468.06 342.051,1468.76 342.051,1469.13ZM322.108,1467.61C321.49,1468.53 321.454,1467.84 321.573,1469.44C321.63,1470.2 321.572,1471.24 321.572,1472.04L321.572,1482.28C321.572,1483.95 321.368,1486.02 323.024,1486.02C324.109,1486.02 324.23,1485.47 324.629,1484.88L324.629,1480.67C324.937,1480.21 325.439,1479.99 325.744,1479.57C325.962,1479.28 326.523,1478.45 326.921,1478.45C327.619,1478.45 333.77,1486.1 335.021,1486.1L335.862,1486.1C336.083,1486.1 336.855,1485.51 336.855,1485.26L336.855,1484.57C336.785,1484.54 335.22,1482.74 334.964,1482.49C334.286,1481.82 333.666,1481.11 332.977,1480.42C332.548,1479.99 329.061,1476.45 329.061,1476.24L329.061,1476.09C329.061,1475.53 334.257,1470.92 334.257,1470.2C334.257,1469.56 333.573,1468.9 333.034,1468.9L332.805,1468.9C331.967,1468.9 331.125,1470.09 330.608,1470.6C329.927,1471.28 329.341,1471.95 328.66,1472.63C327.901,1473.39 325.416,1476.29 324.781,1476.62L324.476,1476.47L324.476,1469.74C324.476,1469.41 324.629,1469.46 324.629,1469.13L324.629,1469.06C324.629,1468.23 323.946,1467.53 323.101,1467.53L322.946,1467.51L322.108,1467.61ZM306.901,1472.19C306.901,1470.98 308.683,1470.2 310.033,1470.2C312.278,1470.2 312.242,1471.81 313.396,1471.81L313.549,1471.81C313.892,1471.81 314.695,1471.31 314.695,1470.81L314.695,1470.58C314.695,1468.71 312.035,1467.83 310.033,1467.83L309.804,1467.83C309.53,1467.83 307.937,1468.14 307.678,1468.23C306.9,1468.48 306.646,1468.55 305.957,1468.95C305.2,1469.39 303.997,1470.85 303.997,1471.96L303.997,1473.41C303.997,1474.29 304.843,1475.52 305.314,1475.99C305.952,1476.63 306.759,1477.09 307.576,1477.55C308.356,1477.99 309.344,1478.23 310.212,1478.74C310.828,1479.09 311.944,1479.96 311.944,1480.83C311.944,1482.31 310.295,1483.19 308.811,1483.19C306.487,1483.19 305.394,1480.52 304.15,1480.52L303.997,1480.52C303.641,1480.52 303.08,1481.22 303.08,1481.74L303.08,1481.82C303.08,1483.52 306.772,1485.49 308.658,1485.49L309.04,1485.49C309.922,1485.49 310.271,1485.18 311.027,1485.18C311.245,1485.04 312.105,1484.74 312.416,1484.58C312.871,1484.35 313.221,1484.1 313.568,1483.75C314.104,1483.21 314.848,1482.07 314.848,1481.05L314.848,1480.6C314.848,1475.69 306.901,1475.75 306.901,1472.8L306.901,1472.19ZM290.089,1477.69C290.089,1477.65 291.404,1474.74 291.529,1474.47C291.87,1473.72 292.615,1471.82 293.222,1471.5C293.83,1471.82 293.831,1472.99 294.215,1473.56L294.733,1475.69L294.954,1476.69C294.996,1476.84 295.056,1476.83 295.056,1477L295.056,1477.38L294.789,1477.58L293.986,1477.62L290.78,1478.1L290.471,1478.07C290.293,1478.07 290.089,1477.87 290.089,1477.69ZM286.192,1484.95C287.728,1484.95 288.296,1481.29 289.035,1480.69C289.595,1480.23 291.542,1480.69 292.316,1480.45C292.683,1480.34 294.97,1480.06 295.438,1480.06C295.668,1480.4 296.192,1482.49 296.277,1483.04C296.324,1483.35 296.614,1484.27 296.756,1484.47C296.942,1484.75 297.538,1485.18 297.884,1485.18L297.96,1485.18C298.805,1485.18 299.487,1484.56 299.414,1483.58C299.336,1482.52 299.005,1481.92 298.885,1481.12C298.789,1480.48 298.492,1479.35 298.312,1478.64C298.192,1478.17 298.079,1477.89 298.036,1477.39C298.034,1477.36 297.82,1476.34 297.779,1476.19C297.415,1474.89 296.936,1472.59 296.457,1471.48C296.075,1470.59 294.838,1468.06 293.833,1468.06L293.146,1468.06C292.346,1468.06 290.973,1470.12 290.578,1470.77C289.933,1471.83 289.356,1473.12 288.804,1474.27C288.366,1475.17 285.581,1480.97 285.581,1481.59L285.361,1481.75C285.352,1482.32 284.74,1483.24 284.74,1484.04C284.74,1484.53 285.088,1484.95 285.581,1484.95L286.192,1484.95ZM266.63,1479.83L266.63,1480.44C266.63,1481.67 266.706,1482.73 266.706,1483.88C266.706,1485.11 266.848,1486.02 268.082,1486.02C269.03,1486.02 269.245,1485.57 269.61,1485.03L269.61,1480.75C269.811,1480.45 271.644,1478.45 271.902,1478.45C272.562,1478.45 278.958,1486.1 280.002,1486.1L280.919,1486.1C281.28,1486.1 282.065,1485.33 281.937,1484.84C281.835,1484.45 281.202,1483.76 280.937,1483.48C280.153,1482.66 279.451,1481.84 278.646,1481.04C278.025,1480.41 274.042,1476.64 274.042,1476.09C274.042,1475.95 276.406,1473.45 276.698,1473.16C277.189,1472.68 279.238,1470.78 279.238,1470.12C279.238,1469.78 279.111,1469.47 278.917,1469.3C278.871,1469.26 278.197,1468.9 278.169,1468.9L277.71,1468.9C276.912,1468.9 274.3,1472.05 273.641,1472.7C272.97,1473.37 272.4,1474.03 271.731,1474.69C271.262,1475.16 270.359,1476.55 269.61,1476.55C269.57,1476.37 269.534,1476.37 269.534,1476.16L269.534,1470.66C269.534,1468.93 269.968,1467.53 267.853,1467.53C266.639,1467.53 266.409,1468.38 266.6,1469.47C266.757,1470.37 266.706,1471.86 266.706,1472.88C266.706,1475.2 266.63,1477.43 266.63,1479.83ZM257.918,1469.97C257.918,1469.65 259.218,1469.67 259.218,1468.6C259.218,1467.85 258.871,1468 258.606,1467.6C257.443,1467.6 256.395,1467.54 255.175,1467.69C254.651,1467.75 254.088,1467.83 253.485,1467.83C252.89,1467.83 252.622,1468.07 251.882,1468.06C251.201,1468.05 249.44,1468.41 248.68,1468.53C247.746,1468.68 246.456,1468.82 246.456,1469.89L246.456,1470.05C246.456,1470.41 247.212,1470.96 247.603,1470.96L248.367,1470.96C248.378,1470.96 249.834,1470.73 250.005,1470.69C250.573,1470.56 251.055,1470.53 251.633,1470.41C252.537,1470.22 253.925,1470.05 255.015,1470.05C255.394,1470.61 255.779,1474.06 255.779,1475.09L255.779,1476.93C255.779,1477.69 255.255,1480.25 255.001,1480.81C254.744,1481.38 254.545,1481.82 254.19,1482.29C253.9,1482.68 253.142,1483.25 253.028,1483.42C252.364,1483.42 252.423,1483.65 251.882,1483.65L251.5,1483.65C251.004,1483.65 250.924,1483.42 250.353,1483.42C250.106,1483.26 249.608,1482.96 249.207,1482.96L249.131,1482.96C248.66,1482.96 248.101,1483.37 247.98,1483.8C247.804,1484.44 248.099,1484.74 248.46,1485.09C249.048,1485.65 250.218,1486.02 251.347,1486.02L251.729,1486.02C253.322,1486.02 254.804,1485.29 255.607,1484.47C256.198,1483.88 256.37,1483.67 256.862,1482.98C257.096,1482.65 257.627,1481.43 257.842,1481.28L257.842,1480.9C258.321,1480.18 258.53,1477.54 258.53,1476.24C258.53,1475.4 258.504,1473.68 258.344,1472.99C258.263,1472.63 257.918,1470.2 257.918,1469.97ZM173.327,1483.19C172.041,1482.33 171.46,1482.16 170.842,1480.48C170.448,1479.41 170.28,1477.16 170.579,1475.86C170.912,1474.41 171.369,1473.26 172.166,1472.25C172.695,1471.58 174.338,1470.41 175.62,1470.58L177.066,1470.77L177.317,1470.95C178.163,1470.96 179.088,1472.07 179.44,1472.65C179.734,1473.12 180.281,1474.81 180.281,1475.55L180.281,1478C180.281,1478.17 179.927,1479.93 179.855,1480.17C179.688,1480.72 179.279,1481.48 178.926,1481.84C178.475,1482.29 178.057,1482.65 177.417,1482.93C177.144,1483.04 175.683,1483.42 175.39,1483.42L174.321,1483.42C173.915,1483.42 174.002,1483.19 173.327,1483.19ZM182.344,1481.66C182.344,1481.19 182.629,1480.87 182.722,1480.44C182.806,1480.05 182.917,1479.52 183.014,1479.12C183.151,1478.57 183.338,1476.94 183.338,1476.32L183.338,1475.78C183.338,1474.81 183.009,1473.08 182.69,1472.38C182.134,1471.15 181.895,1470.87 181.026,1469.99C179.732,1468.68 177.436,1468.06 174.855,1468.06L174.397,1468.06C173.772,1468.06 173.664,1468.29 172.945,1468.29C172.624,1468.51 172.149,1468.69 171.796,1468.9C171.405,1469.13 171.155,1469.33 170.805,1469.59C170.271,1469.98 169.601,1470.79 169.216,1471.36C168.826,1471.95 168.301,1472.85 168.086,1473.6C167.896,1474.26 167.443,1475.56 167.443,1476.32L167.443,1478.99C167.443,1480.48 168.644,1482.78 169.411,1483.6C170.084,1484.31 170.347,1484.55 171.207,1485.09C171.558,1485.31 173.109,1485.87 173.63,1485.87C176.138,1485.88 177.215,1485.81 179.123,1484.94C179.741,1484.66 180.564,1484.05 181.028,1483.56C181.39,1483.18 182.179,1481.78 182.344,1481.66ZM192.125,1471.73L192.125,1471.65C192.125,1471.48 192.329,1471.27 192.507,1471.27L192.584,1471.27C195.605,1471.27 199.767,1472.23 199.767,1475.09L199.767,1475.55C199.767,1477.45 198.593,1479.01 197.488,1479.84C196.833,1480.34 193.914,1481.97 192.966,1481.97C192.472,1481.97 192.659,1480.08 192.66,1479.53C192.661,1478.86 192.613,1477.48 192.523,1476.91C192.396,1476.1 192.604,1475.04 192.437,1474.25C192.356,1473.86 192.125,1472.08 192.125,1471.73ZM188.992,1469.82L188.992,1470.81C188.992,1470.86 189.259,1472.24 189.298,1472.34C189.428,1472.69 189.423,1473.54 189.544,1474.01C189.623,1474.31 189.833,1477.09 189.833,1477.54L189.833,1478.3C189.833,1480.79 189.263,1484.8 191.896,1484.8L191.972,1484.8C193.48,1484.8 197.362,1482.95 198.403,1482.29C199.206,1481.78 200.298,1480.98 200.893,1480.27C201.253,1479.84 201.508,1479.46 201.798,1478.96C202.097,1478.44 202.264,1477.76 202.518,1477.38C202.518,1476.88 202.69,1476.14 202.744,1475.62C202.794,1475.13 202.518,1474.29 202.518,1473.79C202.282,1473.44 202.182,1473 201.939,1472.61C201.696,1472.23 201.416,1471.93 201.122,1471.6C200.598,1471 199.723,1470.53 198.99,1470.14C197.917,1469.57 194.645,1468.9 192.966,1468.9L191.438,1468.9C190.56,1468.9 188.992,1469.07 188.992,1469.82ZM212.146,1478.38L212.299,1478.38C214.028,1478.38 217.342,1479.81 217.342,1481.21L217.342,1481.89C217.342,1482.68 216.434,1482.84 216.178,1483.14L215.426,1483.38L213.216,1483.65L212.222,1483.65C211.564,1483.65 211.908,1481.65 211.794,1481.02C211.681,1480.4 211.584,1478.38 212.146,1478.38ZM211.611,1471.04C211.611,1470.37 212.527,1470.43 213.216,1470.43C214.512,1470.43 216.272,1471.17 216.272,1472.34L216.272,1472.49C216.272,1473.56 215.62,1474.33 214.909,1474.72C214.558,1474.91 212.763,1475.63 212.299,1475.63L211.917,1475.63C211.738,1475.63 211.611,1475.5 211.611,1475.32L211.611,1471.04ZM207.79,1469.74L207.79,1470.05C207.79,1470.3 208.471,1470.92 208.586,1471.24C208.774,1471.76 208.707,1472.51 208.707,1473.18C208.707,1474.56 208.704,1475.93 208.705,1477.31C208.706,1478.52 208.784,1480.01 208.784,1481.36C208.784,1481.9 208.842,1482.92 208.77,1483.41C208.675,1484.04 208.172,1484.14 208.172,1484.88C208.172,1485.63 208.788,1485.79 209.243,1486.08L211.382,1486.19L214.664,1486.09L217.571,1485.26C217.755,1484.98 218.979,1484.47 219.406,1483.88C219.766,1483.38 220.434,1482.55 220.337,1481.59L220.246,1480.67C219.578,1479.67 219.686,1479.34 218.663,1478.43C218.322,1478.13 216.501,1476.95 216.501,1476.77C216.501,1476.57 219.176,1475.36 219.176,1473.11L219.176,1472.11C219.176,1471.35 218.335,1470 217.891,1469.65C217.539,1469.38 217.196,1469.12 216.811,1468.9C216.415,1468.67 215.849,1468.52 215.508,1468.29C214.868,1468.29 214.893,1468.11 214.512,1468.06C214.165,1468.02 213.658,1468.09 213.291,1468.06C212.601,1468.01 211.834,1468 210.997,1468.06C210.784,1468.07 209.301,1468.51 209.089,1468.6C208.517,1468.83 207.79,1468.93 207.79,1469.74ZM228.346,1477.16C228.346,1475.64 229.116,1473.69 229.735,1472.74C230.109,1472.16 230.617,1471.67 231.188,1471.29C231.574,1471.03 232.747,1470.51 233.389,1470.58L234.991,1470.76L235.24,1470.95C236.168,1470.96 237.069,1472.15 237.443,1472.8C237.837,1473.47 238.203,1474.93 238.203,1476.01L238.203,1477.31L237.832,1480.14C237.375,1480.8 237.441,1481.23 236.772,1481.91C236.399,1482.29 235.688,1482.96 234.994,1482.96L234.781,1483.21C233.879,1483.19 233.808,1483.42 233.16,1483.42L232.243,1483.42C231.953,1483.42 230.762,1482.93 230.509,1482.79C230.118,1482.56 229.593,1482.02 229.352,1481.65C228.814,1480.83 228.346,1479.35 228.346,1478L228.346,1477.16ZM225.366,1478.68C225.366,1480.82 226.795,1483.34 228.029,1484.28C228.972,1484.99 229.336,1485.37 230.747,1485.68C231.889,1485.94 233.171,1486.02 234.43,1485.76C237.042,1485.23 238.272,1484.51 239.61,1482.69C240.636,1481.29 241.26,1478.52 241.26,1476.09C241.26,1475.07 241.117,1473.46 240.725,1472.88L240.725,1472.57C240.281,1471.91 240.13,1471.3 239.558,1470.6C239.062,1470 238.573,1469.62 237.909,1469.2C236.748,1468.46 234.729,1468.06 232.855,1468.06L232.32,1468.06C231.694,1468.06 231.586,1468.29 230.867,1468.29C230.548,1468.5 230.07,1468.69 229.719,1468.9C229.363,1469.11 229.052,1469.35 228.727,1469.59C228.171,1470 227.507,1470.81 227.108,1471.41C226.399,1472.48 225.366,1474.75 225.366,1476.47L225.366,1478.68ZM304.455,1460.27L304.455,1461.11C304.455,1461.55 306.549,1462.78 306.971,1463.17C307.588,1463.75 308.814,1464.85 309.957,1464.85C310.698,1464.85 311.64,1463.62 312.249,1463.17C312.864,1462.71 314.466,1462.2 314.466,1461.34L314.466,1461.03C314.466,1460.46 314.019,1459.96 313.618,1459.81C312.979,1459.57 312.466,1459.97 312.045,1460.21C311.427,1460.57 310.222,1461.87 309.498,1461.87C308.943,1461.87 306.602,1459.35 305.984,1459.35L305.296,1459.35C305.03,1459.35 304.455,1460.07 304.455,1460.27" style="fill:rgb(255,245,0);"/>
        </g>
        <g transform="matrix(2.89862,0,0,2.89862,177.655,-3658.87)">
            <path d="M174.487,1500.8C174.95,1500.8 175.38,1500.62 175.821,1500.67L177.281,1500.82L177.487,1500.98C178.418,1500.99 179.522,1502.29 179.815,1502.97C180.262,1504.01 180.523,1505.05 180.523,1506.53C180.523,1508.39 180.238,1510.41 179.419,1511.46C178.764,1512.31 178.653,1512.26 177.778,1512.81C177.458,1513.01 175.88,1513.39 175.376,1513.39L174.741,1513.39C174.116,1513.39 174.136,1513.14 173.534,1513.14C172.921,1512.73 172.473,1512.65 171.962,1512.04C171.496,1511.49 171.364,1510.96 170.992,1510.4C170.992,1509.7 170.736,1509.69 170.736,1509.01C170.737,1508.41 170.663,1508.07 170.672,1507.48C170.683,1506.7 170.858,1505.17 171.131,1504.69C171.199,1504.57 171.508,1503.73 171.601,1503.51C171.747,1503.16 171.989,1502.8 172.215,1502.53C172.482,1502.22 172.693,1501.93 173.013,1501.68C173.212,1501.52 173.824,1501.13 173.915,1500.99L174.487,1500.8ZM178.871,1515.18C179.717,1514.61 180.129,1514.54 180.919,1513.79C181.745,1513.01 181.804,1512.81 182.379,1511.82C182.773,1511.13 183.06,1510.15 183.205,1509.21C183.292,1508.64 183.448,1508.6 183.446,1507.73C183.445,1507.07 183.573,1506.78 183.573,1506.21L183.573,1505.89C183.573,1505.77 183.416,1504.04 183.398,1503.96C183.287,1503.53 183.079,1502.82 182.907,1502.42C182.461,1501.39 181.979,1500.75 181.239,1500.02C179.909,1498.71 177.615,1498.13 174.995,1498.13L174.677,1498.13C173.076,1498.13 171.419,1499.2 170.594,1500.02C170.012,1500.6 168.323,1502.75 168.323,1503.73L168.063,1504.1C168.069,1504.57 167.894,1505.1 167.791,1505.61C167.682,1506.15 167.624,1506.59 167.624,1507.22L167.624,1507.99L167.878,1510.28C168.163,1510.7 167.974,1510.78 168.156,1511.08C168.318,1511.35 168.345,1511.53 168.494,1511.82C168.745,1512.32 168.918,1512.76 169.27,1513.15C169.988,1513.93 170.546,1514.63 171.573,1515.1C172.516,1515.53 173.675,1515.99 175.006,1515.83C175.355,1515.79 175.723,1515.81 176.077,1515.81C176.526,1515.81 176.555,1515.71 176.924,1515.64C177.567,1515.52 178.118,1515.47 178.553,1515.18L178.871,1515.18ZM195.646,1501.5C195.646,1501.17 196.695,1500.99 197.107,1500.99C197.724,1501 197.585,1500.85 197.935,1500.8C198.266,1500.76 198.491,1500.78 198.817,1500.73C199.793,1500.57 201.428,1500.49 201.428,1499.4L201.428,1499.21C201.428,1498.84 201.375,1498.63 201.16,1498.46C201.115,1498.42 200.565,1498.13 200.539,1498.13L199.331,1498.13C199.059,1498.13 198.433,1498.34 198.056,1498.38C197.634,1498.43 197.038,1498.5 196.726,1498.51C196.394,1498.53 194.38,1498.77 194.084,1498.86C193.542,1499.01 193.407,1499.02 192.723,1499.02C192.097,1499.02 191.949,1499.15 191.448,1499.2C191.008,1499.26 190.49,1499.25 190.054,1499.27C189.64,1499.3 189.285,1499.46 188.784,1499.46C188.294,1499.79 187.576,1499.91 187.576,1500.8C187.576,1501.35 187.931,1501.56 188.148,1501.88C188.621,1501.88 188.677,1502.07 188.974,1502.07L189.165,1502.07L192.028,1501.72L192.342,1501.69C192.995,1501.69 192.723,1504.69 192.723,1505.44C192.723,1506.96 192.914,1508.07 192.914,1509.39C192.914,1510.58 192.942,1512.26 193.13,1513.31C193.227,1513.85 193.074,1514.89 193.26,1515.27C193.439,1515.64 193.991,1516.07 194.502,1516.07L194.693,1516.07C195.352,1516.07 196.091,1515.43 196.091,1514.79L196.091,1514.48L195.657,1504.68L195.646,1501.5ZM218.711,1503.09C218.943,1502.93 219.59,1501.48 219.792,1501.12C219.96,1500.82 220.681,1499.3 220.681,1498.95C220.681,1498.26 219.952,1497.75 219.22,1497.75L219.029,1497.75C217.737,1497.75 217.466,1499.87 216.932,1500.23C216.932,1501.06 214.073,1505.75 214.073,1506.72C213.842,1506.87 212.494,1510.03 212.485,1510.47L212.103,1510.47C212.103,1509.88 210.954,1506.82 210.714,1506.13C210.55,1505.67 209.18,1502.06 209.18,1501.94L209.18,1501.69L209.104,1501.72L208.33,1499.7L208.291,1499.4C208.101,1499.12 208.04,1498.9 207.847,1498.64C207.757,1498.51 207.291,1498.13 207.147,1498.13L206.384,1498.13C205.927,1498.13 205.368,1498.82 205.368,1499.34L205.368,1499.65C205.368,1499.99 206.083,1501.83 206.257,1501.94C206.257,1502.56 207.437,1505.27 207.643,1506.03C207.87,1506.87 208.926,1509.48 208.926,1510.15C209.138,1510.47 209.835,1512.87 209.995,1513.41C210.254,1514.27 211.061,1515.62 212.103,1515.62L212.167,1515.62C213.405,1515.62 214.375,1512.96 214.871,1511.97C215.109,1511.49 216.741,1507.74 216.741,1507.48L217.693,1505.47L218.711,1503.09ZM231.483,1500.99C231.882,1500.99 231.825,1500.86 232.358,1500.79C232.657,1500.74 232.867,1500.67 233.262,1500.67L233.389,1500.67C234.907,1500.67 236.009,1501.21 236.721,1502.05C237.084,1502.47 237.436,1502.94 237.578,1503.54C237.707,1504.08 238.028,1504.83 238.028,1505.44L238.028,1508.05C238.028,1508.63 237.774,1508.91 237.774,1509.7C237.571,1510.01 237.502,1510.48 237.299,1510.88C237.068,1511.35 236.934,1511.5 236.642,1511.88C236.483,1512.09 235.974,1512.47 235.719,1512.61C235.356,1512.81 234.876,1512.95 234.597,1513.14C233.728,1513.14 233.635,1513.39 232.818,1513.39L232.309,1513.39C231.815,1513.39 230.861,1513.04 230.508,1512.84C229.976,1512.55 229.626,1512.19 229.275,1511.72C228.603,1510.83 228.243,1509.66 228.243,1508.12L228.243,1507.22C228.243,1505.64 228.706,1504.48 229.186,1503.4C229.334,1503.06 229.913,1502.27 230.162,1502.02C230.397,1501.79 231.437,1501.06 231.483,1500.99ZM236.439,1515.18C236.508,1515.07 238.048,1514.23 238.426,1513.86C238.909,1513.38 239.562,1512.69 239.822,1512.01C240.061,1511.39 240.629,1510.44 240.699,1509.58C240.749,1508.96 240.956,1508.86 240.951,1508.18C240.946,1507.54 241.078,1507.28 241.078,1506.72L241.078,1505.44C241.078,1504.97 240.971,1504.69 240.953,1504.11C240.94,1503.65 240.697,1503.56 240.697,1502.96C240.253,1502.3 240.152,1501.6 239.564,1500.85C239.121,1500.29 238.473,1499.71 237.85,1499.32C236.527,1498.5 234.685,1498.13 232.563,1498.13L231.992,1498.13C231.259,1498.13 230.134,1498.61 229.653,1498.9C228.899,1499.37 228.555,1499.63 227.941,1500.24C227.402,1500.78 226.977,1501.34 226.592,1502.01C226.418,1502.31 226.221,1502.68 226.069,1503.01C225.884,1503.41 225.884,1503.74 225.637,1504.11C225.637,1504.57 225.548,1504.61 225.423,1504.91C225.345,1505.1 225.397,1505.6 225.335,1505.84C225.179,1506.44 225.129,1506.92 225.129,1507.67C225.129,1509.86 225.872,1511.9 226.827,1513.16C227.319,1513.81 227.987,1514.42 228.677,1514.87C229.085,1515.13 230.699,1515.81 231.293,1515.81L233.771,1515.81C234.49,1515.81 235.906,1515.18 236.439,1515.18ZM250.037,1500.23C250.037,1499.79 251.5,1499.85 252.007,1499.85L252.134,1499.85C252.769,1499.85 253.47,1499.85 253.85,1500.1C254.359,1500.1 255.144,1500.61 255.544,1500.82C255.979,1501.05 256.518,1501.59 256.518,1502.2L256.518,1502.71C256.518,1503.4 256.302,1503.63 256.041,1504.08C255.715,1504.63 255.553,1504.62 254.983,1504.86C254.297,1505.15 252.919,1505.44 251.944,1505.44L251.816,1505.44C251.124,1505.44 250.646,1505.34 250.228,1505.06L250.029,1502.14L250.037,1500.23ZM247.576,1503.72L247.559,1505.38L247.411,1507.6L247.432,1507.92C247.432,1508.57 247.418,1509.75 247.509,1510.33C247.622,1511.05 247.475,1512 247.563,1512.75C247.644,1513.44 247.7,1514.37 247.751,1515.05C247.825,1516.04 248.071,1516.09 248.703,1516.51C249.614,1516.51 250.639,1516.5 250.545,1515.37L250.164,1510.79L250.228,1510.79L250.228,1507.86C250.228,1507.71 250.272,1507.67 250.419,1507.67L250.736,1507.67L252.833,1507.75C253.088,1508.22 253.94,1509.29 254.321,1509.81C254.837,1510.5 255.294,1511.13 255.809,1511.82C256.329,1512.5 256.862,1513.11 257.397,1513.79C257.856,1514.37 258.399,1515.3 259.378,1515.3L259.505,1515.3C259.974,1515.3 260.649,1514.74 260.649,1514.29L260.649,1514.16C260.649,1513.67 258.314,1510.82 257.888,1510.31C257.394,1509.71 256.902,1509.04 256.454,1508.43C256.285,1508.2 255.848,1507.75 255.787,1507.44C255.695,1506.98 256.252,1506.78 256.645,1506.78C256.778,1506.58 257.651,1506.07 257.991,1505.64C258.454,1505.07 258.556,1504.73 258.933,1504.17L259.083,1503.52C259.124,1501.92 259.13,1501.03 258.316,1500.02C257.881,1499.48 256.424,1498.32 255.565,1498.32L255.388,1498.12C254.805,1498.13 253.952,1497.72 253.343,1497.68C252.483,1497.62 251.835,1497.67 251.056,1497.69C250.068,1497.7 249.647,1497.88 248.83,1497.87C248.13,1497.87 247.369,1498.34 247.369,1498.83L247.338,1501.31L247.576,1503.72ZM268.273,1500.55C268.783,1500.5 269.313,1500.16 270.118,1500.17C270.882,1500.17 271.239,1499.91 272.086,1499.91C273.171,1499.91 275.581,1500.01 275.581,1499.02L275.581,1498.83C275.581,1498.08 274.706,1497.49 273.992,1497.49L271.959,1497.49C271.344,1497.49 270.855,1497.68 270.245,1497.68C269.402,1497.68 269.3,1497.88 268.527,1497.87C267.909,1497.87 267.582,1498.05 266.878,1498.13C266.538,1498.17 265.843,1498.5 265.655,1498.75C265.347,1499.17 265.266,1499.59 265.355,1500.35C265.422,1500.92 265.353,1501.62 265.419,1502.19C265.545,1503.32 265.605,1504.47 265.605,1505.76C265.605,1507.78 265.575,1511.47 266.039,1512.9C266.665,1514.82 267.968,1516 270.497,1516L270.688,1516C271.083,1516 272.923,1515.67 273.21,1515.54C273.707,1515.3 274.882,1514.93 274.882,1514.29L274.882,1513.84C274.882,1513.67 274.47,1513.29 274.374,1513.14C273.937,1513.14 274.035,1513.01 273.738,1513.01L273.357,1513.01C272.532,1513.01 271.743,1513.65 270.942,1513.65L270.053,1513.65C269.386,1513.65 269.162,1512.76 268.909,1512.38L268.436,1508.95L268.464,1508.69C268.464,1508.51 268.671,1508.38 268.782,1508.31C269.55,1508.31 269.833,1508.12 270.438,1508.06C270.934,1508 271.593,1507.94 272.062,1507.84C272.902,1507.64 274.437,1507.46 274.437,1506.53L274.437,1506.33C274.437,1505.89 273.917,1505.38 273.484,1505.38L272.721,1505.38C272.276,1505.38 271.991,1505.44 271.642,1505.44C271.089,1505.45 271.109,1505.61 270.754,1505.64C269.673,1505.72 269.682,1505.68 268.782,1505.89L268.466,1505.7C268.464,1504.51 268.015,1501.65 268.273,1500.55ZM294.008,1515.81C295.227,1515.81 295.597,1513.93 295.598,1512.63C295.599,1511.06 295.596,1509.49 295.596,1507.92C295.596,1506.33 295.724,1504.75 295.725,1503.35C295.725,1502.54 295.79,1501.76 295.787,1501.06C295.783,1500.2 295.977,1499.73 295.977,1498.89L295.977,1498.26C295.977,1497.37 295.576,1496.54 294.707,1496.54L294.453,1496.54C293.644,1496.54 293.419,1497.11 293.118,1497.56C293.118,1498.66 292.927,1499.72 292.927,1500.86C292.927,1501.73 292.956,1503.41 292.859,1504.23C292.76,1505.08 292.737,1506.7 292.737,1507.61C292.737,1508.17 292.926,1510.79 292.483,1510.79C292.164,1510.79 288.714,1505.2 288.277,1504.5C287.6,1503.41 287.01,1502.3 286.32,1501.24C285.7,1500.3 285.095,1498.77 283.587,1498.77L283.523,1498.77C282.778,1498.77 282.234,1499.18 281.988,1499.71C281.658,1500.42 281.744,1500.87 281.744,1501.88C281.744,1503.52 281.824,1505.03 281.808,1506.72L281.741,1514.03L281.808,1514.03C282.205,1514.3 282.224,1514.73 283.015,1514.73C283.837,1514.73 284.482,1514.1 284.477,1513.2C284.47,1512.14 284.612,1511.25 284.604,1510.34C284.596,1509.42 284.581,1505.13 284.731,1504.49C285.104,1504.58 285.653,1505.62 285.803,1505.96C285.99,1506.39 286.458,1507.14 286.726,1507.58C287.041,1508.1 287.338,1508.7 287.67,1509.18C287.998,1509.66 288.376,1510.19 288.67,1510.66C289.325,1511.71 292.338,1515.81 293.626,1515.81L294.008,1515.81ZM303.348,1499.65C303.348,1500 303.475,1500.01 303.475,1500.36L303.475,1501.25C303.475,1502.49 303.348,1503.53 303.348,1504.87C303.348,1506.1 303.368,1507.34 303.351,1508.56C303.335,1509.67 303.285,1510.97 303.285,1512.19C303.285,1512.77 303.24,1513.51 303.278,1513.91C303.381,1514.98 303.438,1514.55 303.856,1515.18C304.379,1515.18 304.16,1515.37 304.556,1515.37L305,1515.37C305.439,1515.37 306.144,1514.77 306.144,1514.16L306.144,1499.97C306.144,1499.21 305.674,1498.13 305,1498.13L304.174,1498.13C303.806,1498.13 303.348,1498.66 303.348,1499.02L303.348,1499.65Z" style="fill:rgb(255,245,0);"/>
        </g>
        <g transform="matrix(-2.89862,0,0,2.89862,2029.48,-3087.99)">
            <path d="M319.432,1368.35C297.508,1368.35 279.728,1386.12 279.728,1408.05C279.728,1429.97 297.508,1447.75 319.432,1447.75C341.357,1447.75 359.136,1429.97 359.136,1408.05C359.136,1386.12 341.357,1368.35 319.432,1368.35" style="fill:rgb(28,46,117);"/>
        </g>
        <g transform="matrix(2.89862,0,0,2.89862,177.655,-2648.57)">
            <path d="M204.817,1315.01C204.899,1314.83 204.983,1314.65 205.066,1314.47C205.395,1313.76 205.737,1313.04 206.091,1312.31C206.167,1312.15 206.263,1311.99 206.376,1311.84L206.376,1311.83C207.885,1309.83 208.696,1308.25 210.498,1306.56C216.069,1301.35 224.491,1293.47 240.322,1301.11C240.975,1301.42 241.508,1301.65 242.018,1301.84C242.505,1302.01 243.076,1302.18 243.822,1302.37C246.047,1302.93 248.2,1303.21 249.913,1303.02C250.897,1302.9 251.69,1302.64 252.181,1302.18C252.599,1301.79 252.84,1301.16 252.835,1300.23C252.828,1299.08 252.463,1297.58 251.652,1295.66C249.992,1292.32 247.696,1289.64 245.383,1286.93C244.765,1286.21 244.144,1285.49 243.407,1284.59C241.794,1282.59 240.435,1280.01 242.882,1277.9L242.924,1277.86L242.927,1277.85L242.936,1277.85C243.553,1277.34 244.303,1277.09 245.021,1277.09C246.131,1276.78 248.825,1278.53 249.247,1279.19C254.347,1283.76 258.469,1288.52 261.024,1293.59C263.67,1298.84 264.65,1304.4 263.337,1310.36L263.304,1310.47C262.3,1314.08 261.182,1317.65 259.607,1321.08C257.997,1324.57 255.92,1327.9 253.024,1330.93C252.077,1331.92 249.244,1335.37 248.445,1336.04C247.276,1337.27 246.158,1338.5 245.041,1339.73C243.936,1340.95 242.83,1342.16 241.503,1343.56C240.858,1344.45 240.497,1346.05 240.362,1347.92C240.186,1350.35 240.435,1353.11 240.97,1355.41L244.376,1365.79C244.725,1367.21 244.234,1368.11 242.906,1368.5L226.42,1372.96C225.146,1373.19 224.303,1372.67 224.136,1372.13L219.525,1365.56C217.092,1367.44 214.675,1369.07 211.975,1370.29C209.228,1371.54 206.222,1372.35 202.668,1372.58C203.119,1373.98 203.506,1375.71 203.551,1377.33C203.605,1379.24 203.189,1381.06 201.933,1382.3L201.526,1382.7L200.995,1382.85C198.38,1383.56 195.681,1384.62 193.358,1385.54C190.8,1386.54 188.66,1387.38 187.198,1387.53C186.258,1387.73 185.712,1387.37 185.346,1386.76C182.266,1382.96 179.581,1378.92 177.113,1374.79C174.705,1370.75 172.937,1368.03 170.76,1363.87C170.683,1363.75 170.002,1363.73 170.01,1364.08C170.051,1365.88 170.747,1367.4 170.28,1367.44C169.823,1367.56 169.366,1367.54 168.908,1367.38C168.156,1367.13 166.324,1363.79 165.728,1362.64C162.462,1356.39 161.897,1348.23 163.351,1340.56C164.86,1332.6 168.561,1325.06 173.691,1320.65C177.41,1317.46 181.51,1315.32 186.117,1314.21C190.675,1313.12 195.678,1313.07 201.251,1314.03C202.243,1314.2 204.646,1315.01 204.817,1315.01" style="fill:rgb(31,26,23);fill-rule:nonzero;"/>
        </g>
        <g transform="matrix(2.89862,0,0,2.89862,177.655,-3087.99)">
            <path d="M319.445,1370.35C321.309,1370.35 323.141,1370.48 324.933,1370.74C327.002,1372.05 329.459,1373.8 331.742,1375.64C333.244,1376.85 334.667,1378.11 335.847,1379.3C333.735,1381.38 331.504,1383.24 329.177,1384.91C325.321,1381.37 320.858,1378.77 315.744,1377.07C311.561,1375.68 306.95,1374.89 301.886,1374.68C307.13,1371.91 313.104,1370.35 319.445,1370.35ZM331.726,1372.39C334.311,1373.28 336.768,1374.45 339.064,1375.85C338.59,1376.4 338.108,1376.94 337.619,1377.47C336.37,1376.21 334.889,1374.91 333.337,1373.66C332.807,1373.23 332.267,1372.81 331.726,1372.39ZM341.206,1377.26C345.471,1380.28 349.079,1384.16 351.78,1388.65C345.828,1393.88 339.76,1398.41 333.571,1402.22C327.499,1405.96 321.304,1409.01 314.981,1411.33C314.006,1406.53 313.547,1401.43 313.417,1396.13C318.671,1394.07 323.733,1391.61 328.456,1388.5C333.081,1385.45 337.377,1381.78 341.206,1377.26ZM353.042,1390.92C355.48,1395.69 356.928,1401.06 357.123,1406.73C350.91,1412.07 344.182,1416.95 337.963,1420.08C332.061,1423.05 326.144,1424.99 320.212,1425.81C318.939,1423.57 317.885,1421.22 317.018,1418.77C316.45,1417.17 315.962,1415.52 315.545,1413.84C322.125,1411.45 328.578,1408.29 334.906,1404.39C341.073,1400.59 347.117,1396.09 353.042,1390.92ZM357.082,1410.27C356.768,1415.67 355.317,1420.77 352.962,1425.33C349.177,1427.9 344.78,1430.94 341.114,1432.91C337.303,1434.95 333.503,1436.54 329.728,1437.29L329.899,1437.07C326.55,1434.41 323.843,1431.42 321.666,1428.16C327.509,1427.23 333.323,1425.26 339.108,1422.35C345.128,1419.32 351.118,1415.26 357.082,1410.27ZM349.424,1430.91C343.742,1438.35 335.355,1443.61 325.731,1445.23C326.176,1444.83 326.608,1444.42 327.026,1444C328.317,1442.68 329.486,1441.23 330.585,1439.71C334.515,1438.88 338.424,1437.24 342.32,1435.15C344.698,1433.87 347.063,1432.43 349.424,1430.91ZM320.847,1445.73C320.381,1445.74 319.915,1445.75 319.445,1445.75C318.919,1445.75 318.396,1445.74 317.875,1445.72C310.541,1438.67 305.081,1430.67 301.599,1421.79C298.027,1412.67 296.527,1402.6 297.209,1391.64C297.588,1391.66 297.966,1391.68 298.342,1391.71C302.833,1392.08 307.056,1393.3 310.868,1395.81C311.053,1404.34 312.055,1412.38 314.616,1419.62C317.229,1427 321.451,1433.53 328.054,1438.86C327.161,1440.05 326.223,1441.18 325.212,1442.21C324.107,1443.34 322.325,1444.76 320.847,1445.73ZM313.899,1445.35C306.524,1444.26 299.845,1441.03 294.508,1436.32C291.557,1430.71 289.164,1424.84 287.671,1418.64C285.702,1410.47 285.289,1401.72 287.209,1392.2C289.742,1391.84 292.233,1391.62 294.658,1391.59C293.97,1402.88 295.53,1413.28 299.227,1422.71C302.486,1431.03 307.403,1438.59 313.899,1445.35ZM288.647,1429.8C284.297,1423.65 281.741,1416.15 281.741,1408.05C281.741,1403.35 282.604,1398.85 284.175,1394.7C282.819,1403.45 283.356,1411.58 285.2,1419.23C286.076,1422.86 287.247,1426.38 288.647,1429.8ZM286.483,1389.74C289.264,1384.74 293.149,1380.44 297.807,1377.17C304.235,1377.06 309.933,1377.81 314.947,1379.48C319.517,1381 323.53,1383.29 327.023,1386.4C322.446,1389.41 317.527,1391.79 312.416,1393.79C308.166,1390.95 303.496,1389.58 298.551,1389.17C294.67,1388.85 290.624,1389.12 286.483,1389.74" style="fill:rgb(255,245,0);"/>
        </g>
        <g transform="matrix(2.89862,0,0,2.89862,177.655,-2648.48)">
            <path d="M208.001,1313.2C204.099,1321.25 201.688,1328.07 203.55,1335.7C204.1,1337.96 207.25,1339.29 209.571,1339.21C214.736,1339.03 219.841,1337.15 224.399,1334.71C227.859,1332.86 229.146,1328.54 226.106,1325.81C221.009,1321.21 215.563,1317.19 210.08,1313.07C209.504,1312.63 208.315,1312.55 208.001,1313.2ZM244.272,1279.47C244.719,1279.09 245.351,1279.08 245.68,1279.47C246.009,1279.85 245.914,1280.48 245.464,1280.86C245.017,1281.24 244.385,1281.25 244.056,1280.86C243.727,1280.48 243.822,1279.85 244.272,1279.47ZM247.836,1280.74C246.629,1280.61 244.523,1282.34 245.043,1283.21C248.069,1286.89 251.321,1290.17 253.582,1294.75C258.036,1305.23 250.847,1306.32 243.299,1304.4C241.779,1304.01 240.799,1303.66 239.4,1302.99C223.405,1295.27 215.588,1304.88 210.459,1309.44C210.018,1310.18 210.054,1310.79 210.566,1311.27C216.623,1315.32 222.611,1319.45 227.805,1324.55C232.097,1328.96 230.373,1333.8 225.388,1336.42C216.366,1341.18 205.941,1343.83 203.048,1338.9C199.408,1332.69 200.096,1325.51 203.263,1318.31C203.569,1317.04 203.328,1316.51 200.894,1316.09C190.297,1314.26 182.002,1316.28 175.069,1322.24C165.722,1330.27 161.426,1349.81 167.604,1361.63C167.976,1362.01 168.263,1361.9 168.464,1361.31C168.648,1360.35 168.819,1359.46 169.569,1359.17C170.685,1359.07 171.545,1360.18 172.124,1361.29C176.473,1369.58 180.975,1377.97 186.991,1385.39C189.29,1385.16 194.998,1382.25 200.438,1380.77C202.309,1378.91 201.154,1374.23 200.192,1371.96C200.081,1371.44 200.678,1370.5 201.063,1370.49C208.917,1370.38 213.914,1367.32 219.266,1363.03C219.954,1362.82 220.281,1363.03 220.555,1363.3C222.327,1365.83 224.099,1368.35 225.871,1370.88C231.367,1369.39 236.862,1367.9 242.358,1366.42C241.212,1362.92 240.067,1359.43 238.921,1355.94C237.812,1351.25 237.807,1344.77 239.922,1342.12C242.48,1339.43 244.466,1337.12 247.024,1334.42C247.448,1334.13 247.388,1333.73 247.014,1333.38C244.961,1332.21 243.65,1330.7 243.217,1328.79C242.737,1327.48 244.139,1326.35 245.473,1327.5C246.877,1330.15 249.015,1330.35 251.488,1329.44C256.921,1323.75 259.309,1316.9 261.261,1309.87C263.66,1298.97 257.657,1289.53 247.836,1280.74ZM229.767,1307.25C230.487,1306.85 231.729,1307.69 232.54,1309.13C233.35,1310.57 233.424,1312.07 232.703,1312.47C231.983,1312.88 230.994,1311.9 230.183,1310.45C229.372,1309.01 229.046,1307.66 229.767,1307.25" style="fill:rgb(152,164,174);"/>
        </g>
    </g>
</svg>
